<svg width="51" height="48" viewBox="0 0 51 48" fill="none" xmlns="http://www.w3.org/2000/svg">
<path d="M33.4091 8C30.3748 8 27.4626 9.41253 25.5617 11.6447C23.6609 9.41253 20.7487 8 17.7143 8C12.3432 8 8.12305 12.2202 8.12305 17.5913C8.12305 24.1831 14.0522 29.5542 23.0331 37.7155L25.5617 40L28.0903 37.6981C37.0713 29.5542 43.0004 24.1831 43.0004 17.5913C43.0004 12.2202 38.7803 8 33.4091 8ZM25.7361 35.1172L25.5617 35.2916L25.3874 35.1172C17.0865 27.6011 11.6108 22.6311 11.6108 17.5913C11.6108 14.1035 14.2266 11.4877 17.7143 11.4877C20.3999 11.4877 23.0157 13.2142 23.9399 15.6033H27.201C28.1078 13.2142 30.7236 11.4877 33.4091 11.4877C36.8969 11.4877 39.5127 14.1035 39.5127 17.5913C39.5127 22.6311 34.0369 27.6011 25.7361 35.1172Z" fill="url(#paint0_linear_83949_542)"/>
<defs>
<linearGradient id="paint0_linear_83949_542" x1="22.6957" y1="4.15999" x2="72.9453" y2="11.4119" gradientUnits="userSpaceOnUse">
<stop stop-color="#002F52"/>
<stop offset="1" stop-color="#326589"/>
</linearGradient>
</defs>
</svg>
